<svg id="Capa_1" data-name="Capa 1" xmlns="http://www.w3.org/2000/svg" viewBox="0 0 595.46 229.27"><defs><style>.cls-1{fill:#0e7a8d;}.cls-2{fill:#0c4991;}.cls-3{fill:#11768e;}.cls-4{fill:#0d5d93;}.cls-5{fill:#1268a7;}.cls-6{fill:#176e90;}.cls-7{fill:#146b8f;}.cls-8{fill:#0e6e91;}.cls-9{fill:#0b68a6;}.cls-10{fill:#0d6990;}.cls-11{fill:#1e5da6;}.cls-12{fill:#085191;}.cls-13{fill:#0b5f91;}.cls-14{fill:#095b92;}.cls-15{fill:#1d72b8;}.cls-16{fill:#2b7ebf;}.cls-17{fill:#1169a6;}.cls-18{fill:#1e70b6;}.cls-19{fill:#187598;}.cls-20{fill:#1e5aa5;}.cls-21{fill:#1569a7;}.cls-22{fill:#1167a8;}.cls-23{fill:#2079bd;}.cls-24{fill:#1b7893;}.cls-25{fill:#1d59a5;}.cls-26{fill:#177197;}.cls-27{fill:#157990;}.cls-28{fill:#0d5b91;}.cls-29{fill:#147595;}.cls-30{fill:#1368a7;}.cls-31{fill:#2182c2;}.cls-32{fill:#167592;}.cls-33{fill:#116aa6;}.cls-34{fill:#186ea7;}.cls-35{fill:#187397;}.cls-36{fill:#1d54a0;}.cls-37{fill:#1367a7;}.cls-38{fill:#12709c;}.cls-39{fill:#1f7a93;}.cls-40{fill:#1d55a1;}.cls-41{fill:#1e6fb5;}.cls-42{fill:#2382c4;}.cls-43{font-size:100px;fill:#004995;font-family:Gugi-Regular, Gugi;}</style></defs><path class="cls-1" d="M292.54,209a43.14,43.14,0,0,0-6-3.09c-2.2-.87-4.47-1.31-6.68-2.13-17.19-3.74-35.31,2.76-46.71,17.65-3.16,4.12-3.16,4.12-6.43-.11-13.3-17.18-35.64-23.24-55.09-14.86-11.81,5.09-20,14.25-26.12,25.6l.06.81c-.54,5.1,2.09,9,4.6,12.92a3.33,3.33,0,0,0,.68,0,6.61,6.61,0,0,1,.8-3c.47-1,1-2,1.55-2.94.8-1.51,1.56-3,2.48-4.48a11.77,11.77,0,0,1,1.75-2.39,4.15,4.15,0,0,1,1.15-1.52l.32-.36.4-.48.43-.47a40.09,40.09,0,0,1,9.29-9c2.91-2,6.42-2.9,9-5.47,3.09-10,4.65-11.16,13.81-10.69,5.17.27,7.8,3,8.19,8.49.12,1.71-.18,3.51.83,5.07,3.66-1.06,6.59.5,9.51,2.59A47.42,47.42,0,0,1,221,232.41c5.29,7.39,13,7.38,18.12-.16,6.73-9.29,15.18-15.67,26.57-17.31,4.63-.66,9.18.17,13.76.32,3.36-3.42,7.28-5.45,12.09-5.29.4,0,.74-.36,1-.66A2.09,2.09,0,0,0,292.54,209Z" transform="translate(-139.59 -153.68)"/><path class="cls-2" d="M284.54,153.75c30.15,0,57.25,19,68.15,47.21a29.85,29.85,0,0,1,1.1,3.31,3.22,3.22,0,0,1-1.71,4,3.1,3.1,0,0,1-4.39-1.32,22.7,22.7,0,0,1-1.64-3.53c-12.81-31.14-43.81-47.82-75.54-40.62a21.44,21.44,0,0,1-2.46.59c-2,.21-3.78-.23-4.29-2.55s.56-3.91,2.89-4.46c2.06-.49,4.08-1.2,6.16-1.49C277,154.32,281.16,153.41,284.54,153.75Z" transform="translate(-139.59 -153.68)"/><path class="cls-3" d="M320.07,254.54a6.33,6.33,0,0,1-.06-1.68,81.55,81.55,0,0,0-4.81-19c-1.4-2.5-2.62-5.11-4.21-7.45-3.68-5.39-7.28-10.91-13.4-13.75-1.51,2.74,3.14,3.82,1.75,6.63-1.29-.39-1.78-2.54-3.51-1.48-.75,1.06-.26,2.26-.36,3.4-.31,3.36-1.79,5.91-5.13,6.62a5.44,5.44,0,0,1-6.16-2.73,5,5,0,0,1-1.13-2l-.09-.66a6.7,6.7,0,0,0-1.27-2.81c-.46-.47-1.64,1-1.66-.69,0-1.37.16-2.85-1.13-3.82-2.33.63-2.59,2.82-3.27,4.69a14.93,14.93,0,0,0,3.71,12.09,1.23,1.23,0,0,0,1.13.31c4.39-1.77,4.41-1.76,5.4,2.87,4.83,2.82,8.69.1,12.23-2.72,2.1-1.66,3.11-1.26,4.26.77,1,1.85,2,3.74,2.89,5.67a1.32,1.32,0,0,1,.54.79,8.22,8.22,0,0,0,.53,1.66,1.54,1.54,0,0,1,.34.77c.54,1.14,1.17,2.24,1.59,3.42a34.11,34.11,0,0,1,1.68,5.19,1,1,0,0,0,.18.08c.44.18.24-.95.59-.43s.25,1.14.78,1.42c2,1,3.26.1,3.7-.89-.32,4.28,1.71,8.82,3.37,13.42.21.59.79.63,1.32.35C320.18,261.19,320.64,257.81,320.07,254.54Z" transform="translate(-139.59 -153.68)"/><path class="cls-4" d="M312.83,203.87a40.28,40.28,0,0,0-22-12.46c-.62-.31-1.42-.24-1.93-.73-1.68-1.64-4.57-3.4-3.76-5.63.75-2,3.84-.9,5.94-.58,13,1.59,23,8.1,30.27,19.38-.56,2.53-.82,2.83-2.4,1.42C317,203.53,315,203.77,312.83,203.87Z" transform="translate(-139.59 -153.68)"/><path class="cls-5" d="M300.27,216.37c-.81-1.31-2.48-2-2.68-3.73l-5-3.33c-5.59-1.11-10.2.49-13.69,5.27l0,.54c.35,2.53-.43,5.22.65,7.8,1.62-.71.69-2.79,2.25-3.09,1.14-.07,1.52-1.09,2.15-1.82.22-.25.43-.48.65-.7a4.63,4.63,0,0,1,.4-.48,3.7,3.7,0,0,1,1-.77c2.11-1.47,4.24-1.32,7,.31.95.56,1.73,1.45,2.9,1.55.48.25,1.22.38,1.38.76.58,1.39.72,3.75,2.84,2.34C301.73,220,301.26,218,300.27,216.37Z" transform="translate(-139.59 -153.68)"/><path class="cls-6" d="M291.09,184.47h-6.3l6,6.94c-4.75-.13-9.49-.44-14.22.63-2,.43-4-.18-4.37-2.87-.36-2.49.84-3.85,3.11-4.29C280.58,183.87,285.8,182.73,291.09,184.47Z" transform="translate(-139.59 -153.68)"/><path class="cls-7" d="M312.83,203.87c1.91-2.16,3.78-2.48,5.89-.16.57.63,1.64,3.25,2.64.14,2.24,2.31,3.33,5.33,4.59,8.23.94,2.17,1,4.46-1.52,5.51s-4.06-.39-4.95-2.69C317.89,210.81,315.38,207.33,312.83,203.87Z" transform="translate(-139.59 -153.68)"/><path class="cls-8" d="M170.78,258a6,6,0,0,0-4.85-.51,2.93,2.93,0,0,0-1.59,1.25,4.07,4.07,0,0,0-.28.76l.13.19a5,5,0,0,1,.5,3.85,5.09,5.09,0,0,1-2.29,3,5,5,0,0,1-1.49.54,5.33,5.33,0,0,1-1.41.65l-1.33.17a5,5,0,0,1-2.52-.68l-1-.78a3.71,3.71,0,0,1-.84-1.21l-.18-.15a4.73,4.73,0,0,1-1.42-3.67,1.17,1.17,0,0,0-.26-.17c-4.17-1.37-4.4-1.8-2.91-6.05a10.33,10.33,0,0,0,.75-3.33,9.14,9.14,0,0,0-.89-4.57c-.16-.29-1.12-.63-.28-1,.31-.15,1,.33,1.56.22l.51-.28c-.22-1.43,0-3.84-.72-4.13-3.78-1.63-2.69-4.92-2.95-7.78a1.53,1.53,0,0,0-1.38-1.4c-1.75,1.26-.69,3.69-2,5.14-1,1.94,0,4.49-1.84,6.15l.07,0c-.72,2.33.07,5-1.67,7.11a2.35,2.35,0,0,0-.36.43c0,.35,0,.7,0,1-.06.89-.13,1.78-.18,2.68a4,4,0,0,1-.05,1.85c0,.23,0,.47,0,.7,0,.08,0,.16,0,.24.06.76.11,1.53.17,2.29.63,8.11,1.52,16.15,5.61,23.36.36-.22.78-.47.88-.86,1.07-3.9,3.29-5,6.82-3.15.21.1.52-.09.76-.23,1-2.08-1.14-3.75-.73-5.92,3.13,1.19,6.22,2.19,9.2-.13,1.2-2.18,1-7.11,5.46-3,.49.45,1.17-.49,1.62-1C171.22,265.9,173.09,262.23,170.78,258Z" transform="translate(-139.59 -153.68)"/><path class="cls-1" d="M141.88,244.17c-.6,2.36,1.94,5.51-1.67,7.11C140.74,248.9,140.47,246.32,141.88,244.17Z" transform="translate(-139.59 -153.68)"/><path class="cls-1" d="M143.65,238c-.58,2.06,1.63,5-1.84,6.15A12,12,0,0,1,143.65,238Z" transform="translate(-139.59 -153.68)"/><path class="cls-9" d="M201.29,219.05c0-1.45-.19-2.91-.1-4.35.43-6.18-2.22-9-6.2-10.61-4.48-1.8-12.3-.09-14.62,3.15a13.67,13.67,0,0,0-3,9.08v-.09c2.76,1.85,4.6,1,6.08-1a2.37,2.37,0,0,1,.1-.7l.5-1.19a4,4,0,0,1,1.36-1.49,5.24,5.24,0,0,1,1.73-.92l.07,0a7.38,7.38,0,0,1,.8-.13,6,6,0,0,1,2.11-.48,5.07,5.07,0,0,1,3.54,1.46,3.78,3.78,0,0,1,1,1.61,3.82,3.82,0,0,1,.4,1.28,5,5,0,0,0,.53.61c1.93,1.29,1.68,5.57,5.48,4.33A.45.45,0,0,0,201.29,219.05Z" transform="translate(-139.59 -153.68)"/><path class="cls-10" d="M315.78,252.68c-.62-.85.45-1.88.79-2.81s2.18-1.89.27-2.72c-1.56-.68-2.1.54-2.32,2.12-.37,2.75-1.65,2.87-3.24.84-1-1.35-.78.11-1,.47,0,7.91,1.29,16-2.35,23.47-1.61-2.62-3.88-2.53-6.34-1.69-.18.37-.36.74-.55,1.11a5.05,5.05,0,0,1-.15,1.86,5.55,5.55,0,0,1-1.64,2.63,10.66,10.66,0,0,0-.18,1.28,5.73,5.73,0,0,0,3,2.82c1.13.55,1.41,1.27.67,2.35a102.25,102.25,0,0,1-8,9.42c-1.3,1.36-3,2.74-2.08,5.16,4,.57,4.75,1.59,4.29,5.55-.12,1-1,2.33,1,2.36,3.42-3.84,7.12-7.46,10.22-11.56,6.81-9,11.1-19.17,11.51-30.83C317.18,261,318.38,256.2,315.78,252.68Z" transform="translate(-139.59 -153.68)"/><path class="cls-11" d="M286,234.65l-11.89,11.74c-1.83-1.08-4.39-1.56-3.57-4.78l9.38-9.86c3.52-3.56,3.89-3.39,6.52,0C287.65,233.38,286.07,233.71,286,234.65Z" transform="translate(-139.59 -153.68)"/><path class="cls-12" d="M262.13,347.17Q247.07,364.3,232,381.44c-1.12,1.28-2,2.39-3.66.49q-23.7-27.06-47.48-54c-.92-2.59-.33-4,2.35-2.48,2.25,1.3,5.2.75,7,3.52,1.06,1.63,2.5-1.46,4.1-.92,3.55,2.14,6,5.53,8.69,8.6,3.7,4.29,7.94,8.11,10.87,13.09.15.4.19,1,.48,1.18,5,2.59,5.23,8.07,7.06,12.59.69,1.7,1.08,3.67,2.77,4.77a7.08,7.08,0,0,0,1.37,1c.36-3.83,3.85-.91,5.19-2.63,6.15-7.46,12.15-15.06,19.3-21.56,2.86-1.77,6.11-2.37,9.25-3.32C262.42,342.33,263.67,344,262.13,347.17Z" transform="translate(-139.59 -153.68)"/><path class="cls-13" d="M194,327.15a1.81,1.81,0,0,1-.37-.6l-.06-.09a.47.47,0,0,1-.06-.09l-.92-.89a15.51,15.51,0,0,1-2-2.62l0-.06,0,0-.09-.1a3.9,3.9,0,0,1-.31-.4c-.09-.15-.17-.3-.27-.45a1.78,1.78,0,0,1-.17-.27c-11.44-13.7-24.76-25.69-34.44-41a1.91,1.91,0,0,0-1.72-1.06c-1.59-.76-2.87-2.44-4.92-1.81-.94.29-3.23-.15-2.58,1,1.35,2.3-1.35,3.42-.69,5.21a23,23,0,0,0,4.84,9.11c9.56,12.26,20.12,23.59,30.66,34.94a13,13,0,0,1,.62-2.2c1.81,2.95,6.4.51,7.57,3.95.86,2.54,1.57,2.14,2.94.68.66-.7,1.17-1.68,2.32-1.66a3.32,3.32,0,0,0,.12-.89,2.77,2.77,0,0,1-.26-.48A2.09,2.09,0,0,1,194,327.15Z" transform="translate(-139.59 -153.68)"/><path class="cls-14" d="M262.13,347.17c.11-2.49-.09-4.72-3.36-4.44-.63-1.48.26-2.62,1.11-3.4,2.56-2.31,3-5.3,3-8.53a5.66,5.66,0,0,1,.34-1.22c3.74-4.89,8.14-9.17,12.19-13.77,4.24-4.81,8.17-9.94,12.79-14.39,1.19-1.14,2.11-2.8,4.09-2.68,1.5.21,3.28-2.71,4.44.15.78,1.89,3.35,3.69.93,6.21a1.1,1.1,0,0,0,.24,1.8Z" transform="translate(-139.59 -153.68)"/><path class="cls-15" d="M196.09,263.72l-25.28-5.2-5.1-.28c-3.72-3-3.74-5.48-.06-7.79,3-1.88,3.38-5.78,5.77-8.15,2.89-.56,3.88.82,3.37,3.64a4.8,4.8,0,0,0,0,2.55c-2.33,3.34-.64,4,2.43,4.71,6.48,1.51,13.2,1.94,19.43,4.63,1,.44,2.42-.05,3.64-.11a8.4,8.4,0,0,1-1.18,7.57C197.36,266.23,197.05,264.31,196.09,263.72Z" transform="translate(-139.59 -153.68)"/><path class="cls-16" d="M168.28,269.94q10.65,10.32,21.29,20.65c1.21,1.16,2.1,2.82,4,3,1.66,3.2-.73,4.67-2.68,5.85-2.18,1.33-3.26-.59-4.11-2.38l-24.35-23.8c-2-3.14.66-4.61,2.39-5.8C167.16,265.83,166.79,269.55,168.28,269.94Z" transform="translate(-139.59 -153.68)"/><path class="cls-17" d="M152.24,260.89a4.91,4.91,0,0,1,2.39-3.65,5.86,5.86,0,0,1,1.24-.58c1.46-1.25,2.8-1.11,4.78.08a5,5,0,0,1,3,2.1c.23.16.45.33.68.51s.27,0,.41,0l1-1.1c-1.44-2.58-3.13-5.16-.06-7.79-5.27-4-10.4-3-15.45.49a1.21,1.21,0,0,0-1.43.36,8.12,8.12,0,0,1-.85,3.64c-2.47,4.78-1.07,7,4.14,6.84a2.39,2.39,0,0,0,.13-.21C152.2,261.34,152.21,261.11,152.24,260.89Z" transform="translate(-139.59 -153.68)"/><path class="cls-1" d="M150.2,250.94l-1.44.36c.55-2.86-1.3-4.5-3.3-6.11,2.32-1.44,3.52.81,5.17,1C150.49,247.78,150.34,249.36,150.2,250.94Z" transform="translate(-139.59 -153.68)"/><path class="cls-18" d="M246.45,331.68a1.85,1.85,0,0,1,0-.23c-.1-.3-.2-.61-.29-.91a5.73,5.73,0,0,0-.6-1.12c-2.36-1.79-4-4.44-6.8-5.7-9.62-5.84-18.77-12.44-27.85-19.1-4.63-3.4-5.14-8.69-2.38-13.73,1.4-2.54,2.93-5,4.15-7.64s2.48-2.78,4.8-1c3.23,2.49,6,5.81,10.11,6.91a5.26,5.26,0,0,0,1.25-.13c2.43-1.14,3.81-2.92,3.29-5.85-1.27-2.27-4.23-2.62-5.44-4.89,2.46-2.85,6.84-2.13,8.66-5.69-.32-2.43-2.25-3.65-3.64-5.28l-11.82,5c-2.92-1-4.78,2.15-7.32,2.15-4.57,0-6.31,2.76-7.05,6.83-1.83,3.24-3.82,6.4-5.43,9.75a3.67,3.67,0,0,1-3.91,2.44,6,6,0,0,0,.34,6,11.78,11.78,0,0,1,2.8.46,5.1,5.1,0,0,1,3.67,4.82c0,.08,0,.15,0,.23a2.35,2.35,0,0,1-.17,2.14c-.84,1.74.33,3,1,4.35a3.52,3.52,0,0,0,2.33,1.8,6.41,6.41,0,0,1,3.56,1.14c10.21,7.37,21.07,13.76,30.72,22,2.28.56,4.4,3.47,6.91.48a5.26,5.26,0,0,0,.07-2.26A5.41,5.41,0,0,1,246.45,331.68Z" transform="translate(-139.59 -153.68)"/><path class="cls-19" d="M219.88,263.57c-2,.88-4.08,1.36-6.11,0a2.34,2.34,0,0,0-.4.74,5.64,5.64,0,0,1,.48,1.14c.64,2.38-.49,4.49-2.1,6.14a5,5,0,0,1-4.87,1.28,5.82,5.82,0,0,1-4.2-3.95,5,5,0,0,1-.12-2l0-.24a4.38,4.38,0,0,1,.47-2.08c0-.09,0-.18.05-.27a4.48,4.48,0,0,1,.16-.52l-.11-.23c-2.18-1.22-2.76,1.75-4.44,1.82-.89-.5-1.18-2-2.57-1.66-1,7.63,1.28,13.36,8.69,16.14.37.14.51.94.75,1.43,2.14-1.14,1.67-5.21,4.18-5.17,4,.07,6.89-2.3,10.19-3.81C220.49,269.39,221.58,266.48,219.88,263.57Z" transform="translate(-139.59 -153.68)"/><path class="cls-20" d="M188.33,221.55a5.2,5.2,0,0,1-2.29-.87l-.34-.23c-3.12-.35-4.11,1.87-4.77,4.49l-9.51,17.36c1.31,1,3.82,1.1,2.36,4-.33.64.22,1.65,1,2.21l11.43-19.69c4.83-3.2,4.86-3.31,2.26-7.17Z" transform="translate(-139.59 -153.68)"/><path class="cls-21" d="M259.67,251.27c-1-1.58-2.6-2.15-4.18-2.69-8.92-3-16.24,3.82-16.16,15.1,2.46.93,5-.67,7.46.19,0-.16,0-.29,0-.44a3.27,3.27,0,0,1-.2-.55,3.75,3.75,0,0,1-.09-2,3.65,3.65,0,0,1,.59-1.86c.2-.3.4-.6.62-.89a2.82,2.82,0,0,1,2.32-2,5.9,5.9,0,0,1,2.23-.51,4.12,4.12,0,0,1,2.11.45,5.29,5.29,0,0,1,1.19.63l.85.18a1.44,1.44,0,0,0,.41,0,4.4,4.4,0,0,0,1.67-1.7C259.18,254,260.27,252.89,259.67,251.27Z" transform="translate(-139.59 -153.68)"/><path class="cls-22" d="M200.24,257.72c-.52,2.55-1.05,5.11-1.58,7.66.93.56,2.07,3,2.55-.3.16-1.08.85-1.4,1.76-1.48l.37-.11a5.45,5.45,0,0,1,2-2.17,5.12,5.12,0,0,1,3.85-.5,4.77,4.77,0,0,1,2.24,1.39l.1.07-.08-.1.17.17a6.68,6.68,0,0,1,.72.57c.14.14.27.29.4.44s.5.26.75.41c2.39.51,2.51,3.23,3.83,4.79,1.62-1.52-.38-4.54,2.55-5C216.08,254.1,207.72,251.61,200.24,257.72Z" transform="translate(-139.59 -153.68)"/><path class="cls-23" d="M257.9,254.81l1.77-3.54c3.43-.75,4.74-4.18,7.19-6.17,1.3-1,2.45-2.32,3.66-3.49.29,2.33,3.16,2.56,3.57,4.78-.52.79-1,1.58-1.57,2.37-1.53,4.72-5.59,7-8.89,10.08C260.57,259.27,258.62,258,257.9,254.81Z" transform="translate(-139.59 -153.68)"/><path class="cls-24" d="M198,216.71c-.48-1.27-.7-2.43-2.33-2.25-.16.42-.33.82-.52,1.21a5,5,0,0,1-.23,1.08l0,.15a4.52,4.52,0,0,1-.11.75,8.89,8.89,0,0,1-.52,1.23,9.56,9.56,0,0,1-.83,1.07,8.69,8.69,0,0,1-1.08.84,6.19,6.19,0,0,1-3.34.82c-.42.16-.86.32-1.32.45,1.53,2.13,2.84,4.19-1,5.21-.26.08-.32,1-.47,1.53,1.38-.1,2.76-.22,4.14-.29,5.47-.28,9.13-3.29,10.84-9A4,4,0,0,1,198,216.71Z" transform="translate(-139.59 -153.68)"/><path class="cls-25" d="M247.07,263.94a1.55,1.55,0,0,0-.44-.3c-2.45-3.11-4.87-.51-7.3,0l-7.61,3.65c-.28,2.67,2.42,3.24,3.32,5.08,2.18,1.34,3.67-.53,5.4-1.25,2.51-1.8,6.85-1.16,7.19-5.84a3,3,0,0,0-.26-.95A4.15,4.15,0,0,1,247.07,263.94Z" transform="translate(-139.59 -153.68)"/><path class="cls-26" d="M184.54,219.31a2.53,2.53,0,0,1-.64-1.11,3.44,3.44,0,0,1-.28-.69l0-.15a7.69,7.69,0,0,1-.19-1.42,4.87,4.87,0,0,1,.1-.74,2.44,2.44,0,0,1,.1-.71l.5-1.19a.05.05,0,0,0,0,0l-.12-.58c-1.62,2.33-3.38,4.37-6.57,3.55-.27,3.52,1.22,6.29,3.5,8.71,2.09-.63,1.91-4.77,5.16-3.58-.09-.27-.16-.54-.24-.81A4.33,4.33,0,0,1,184.54,219.31Z" transform="translate(-139.59 -153.68)"/><path class="cls-17" d="M290.86,261.66c-4.62,2.23-7.6,5.75-7.85,11.22-.08,1.76-.74,2.3-2.28,2-.43,1.69,1,1.9,1.9,2.36a52.29,52.29,0,0,1,6.77,4.35c1.77.17,2.19-1,2.29-2.48a4.86,4.86,0,0,0-.16-1.09c-.06-.05-.1-.12-.16-.17a5.42,5.42,0,0,1-.83-7.27,6.09,6.09,0,0,1,.95-1.35,3.71,3.71,0,0,1,1.6-1,3.68,3.68,0,0,1,1.93-.43,5.1,5.1,0,0,1,2.65.79h0a4.25,4.25,0,0,1,.43.31,8,8,0,0,1,1.21,1,7.26,7.26,0,0,1,1.05,1.42,5.94,5.94,0,0,1,.43,1.05,2,2,0,0,0,.91.24l6.19,1.49C306.6,263.77,300.23,259.13,290.86,261.66Z" transform="translate(-139.59 -153.68)"/><path class="cls-27" d="M290.92,278.61a7.5,7.5,0,0,0,8.1.68c1.63-.05,2.34,1.74,4,2,2.88.44,1.92,2,.58,3.41-2.16-.41-3.57,1.59-5.59,1.83-3.91.46-7.51-.05-10.67-2.67-.1-1.45.85-2.07,1.91-2.59C291,281.23,290.83,279.83,290.92,278.61Z" transform="translate(-139.59 -153.68)"/><path class="cls-28" d="M217,340.12c3.51,8.23,7,16.48,10.6,24.65.68,1.53,1.16,4.51,4,2.14-.57,4.61-3.06.56-4.77,1.1l-.42,3.95c-5.41-3.83-7.11-9.5-8-15.53a3.61,3.61,0,0,0-3-2.92c-2.41-.56-2.33-2.1-2.24-3.9,1.82-1.13-.42-2.27,0-3.41C213.68,343.7,214.52,341.36,217,340.12Z" transform="translate(-139.59 -153.68)"/><path class="cls-29" d="M263.79,330.48c-1.63-1.52-3.47-1.4-5.38-.75l-.08,0a5,5,0,0,1,0,2.55,8.33,8.33,0,0,1-1.71,3A5.71,5.71,0,0,1,254,336.8a5.23,5.23,0,0,1-2.27.12,13.16,13.16,0,0,1-2.39-.33,4.1,4.1,0,0,0-2.42-.23c-2.63,3-4.41-1.89-6.83-.79.81,4.71,3.88,7.2,7.91,8.79.87.35,2.57-.19,2,1.86,2.56-2.15,6.24-1.24,8.76-3.49C261.28,339,265.23,335.94,263.79,330.48Z" transform="translate(-139.59 -153.68)"/><path class="cls-30" d="M258.83,321.58a15.57,15.57,0,0,0-6.5-3.59c-3-.13-5.89.14-7.79,3.07-.69,2.86-1.1,5.7.52,8.4.11.44.21.88.31,1.33a2.16,2.16,0,0,0,1.08-.5,5.65,5.65,0,0,1,.68-2.49,5.07,5.07,0,0,1,3-2.3,3.75,3.75,0,0,1,2-.09,3.68,3.68,0,0,1,1,.18,6.14,6.14,0,0,1,1,.19,6.77,6.77,0,0,1,2.88,1.68,5.05,5.05,0,0,1,1.29,2.21,4.7,4.7,0,0,1,.13.63l5.35.18c0-.37.06-.73.08-1.1C263.1,326.15,261.8,323.28,258.83,321.58Z" transform="translate(-139.59 -153.68)"/><path class="cls-31" d="M206.13,312.76c1.51,6.9,5.38,12.81,7.52,19.45a15.39,15.39,0,0,1-1.17,3.67c-1.36,2.91-2.61,2.18-3.83-.11-2.48-4.36-4-9.18-6.07-13.74-.62-1.37-.75-3.14-2.25-4-1.71-1.32-2.3-3.22-1-4.87s2.94-3.12,5.32-2Z" transform="translate(-139.59 -153.68)"/><path class="cls-32" d="M203.51,307.81c1.77-2.65.79-3.85-.84-4.74a4.74,4.74,0,0,1,.33,1.72,6.43,6.43,0,0,1-1.68,4.41,5.49,5.49,0,0,1-2.78,1.56l-.06.05a5.12,5.12,0,0,1-3.85.5,5.25,5.25,0,0,1-3-2.3,7.63,7.63,0,0,1-.79-1.56,5.12,5.12,0,0,1-.39-3.65,3.28,3.28,0,0,1,.31-.82,1.92,1.92,0,0,0-.74-1.08c-3-1.22-2.82,2.15-4.09,3.41-.9-1.13-.66-2.52-1.71-3.19-2.13,5.22-.59,9.71,3.05,13.33s8.12,4.88,13.05,2.56c-2.36-4.83,1.33-5.59,4.28-6.85C205.13,309.72,202.55,309.25,203.51,307.81Z" transform="translate(-139.59 -153.68)"/><path class="cls-33" d="M191.18,302.21a5.14,5.14,0,0,1,1.32-1.48,6.57,6.57,0,0,1,5.19-1.12c-1.49-1.77-.67-4.18-1.5-6.13l-2.61.09c-1.12,5.35-3.06,6.34-6.79,3.47-1,1.61-2.55,2.93-2.56,5.08a16.22,16.22,0,0,0,.1,1.72c.21,1.3-.65,3.22,1.35,3.55s1.92-1.51,2-2.91c.09-2,1.34-2.25,2.88-2.09Z" transform="translate(-139.59 -153.68)"/><path class="cls-34" d="M208.65,335.77c1.06.44,2.34,2.69,2.89-.59.18-1.08,1.38-2,2.11-3q1.65,4,3.32,7.92c-1.2,2.09-1.95,4.49-3.89,6.07A45.33,45.33,0,0,1,208.65,335.77Z" transform="translate(-139.59 -153.68)"/><path class="cls-35" d="M250.38,287.79c-1.46,1.61-3,3-5.38,2.07a3.39,3.39,0,0,0-.63,1.4,5.22,5.22,0,0,1,.09,2.08c0,.19,0,.37.07.55a5,5,0,0,1-1.46,3.54,3.75,3.75,0,0,1-1.61,1,3.68,3.68,0,0,1-1.93.43,3.55,3.55,0,0,1-1-.08,5.87,5.87,0,0,1-.72.08,3.68,3.68,0,0,1-1.93-.43,3.75,3.75,0,0,1-1.61-1,5.21,5.21,0,0,1-1.46-3.54,7.77,7.77,0,0,0-.08-.83,1.82,1.82,0,0,1,0-.33,7.8,7.8,0,0,1,.2-1.44,7.22,7.22,0,0,1,.54-1.28l0-.07c-1.59-1.17-4.09.8-5.29-1.65l-.95.09c-1,10.39,1.16,14.39,9.31,17.57,2-2.71,4.21-3.36,6.81-.87C250.71,302.64,253.62,295.4,250.38,287.79Z" transform="translate(-139.59 -153.68)"/><path class="cls-36" d="M236.61,306c.15-1.89.07-3.94,2.87-3.61,1.8.21,4.23-.68,3.94,2.74,0,5.32-1,10.76,1.71,15.76l-.06,8.62c-3.09-.51-4.06-3.86-6.51-5.23Z" transform="translate(-139.59 -153.68)"/><path class="cls-37" d="M231.69,283.19c-.21,2.38-1.12,4.26-3.44,5.09-.11,2.46.24,4.17,3.15,2.35a6.78,6.78,0,0,1,2.09-.63,10.13,10.13,0,0,1,.81-1.05l0-.05a11.92,11.92,0,0,1,1-.8l.06,0a10.31,10.31,0,0,1,1.23-.52l.08,0,.09,0a9.31,9.31,0,0,1,1.38-.18,9.12,9.12,0,0,1,1.81.2,7.51,7.51,0,0,1,.82.19,5.07,5.07,0,0,1,2.52,1.65,7.87,7.87,0,0,1,.71.62c.18.17.53.1.82,0,2.15-.46,1.64,2,3.2,3.45-.05-2.69,2.23-3.53,2.27-5.68C246.62,279.84,238.77,277.91,231.69,283.19Z" transform="translate(-139.59 -153.68)"/><path class="cls-38" d="M263.73,258.35c-2.76.27-4.13-1.92-5.83-3.54l-1.06,2a14,14,0,0,1,.87,2.71,4.8,4.8,0,0,1,.44,2l-.18,1.33a4.77,4.77,0,0,1-1.77,2.61c2.08,1.42,4.45,1.63,6.86,1.66C263.51,264.24,265.06,261.41,263.73,258.35Z" transform="translate(-139.59 -153.68)"/><path class="cls-39" d="M247.14,265.1c1.74,2.2,4.13,2.28,6.57,2.16,1.06,1.73,2.22,3.38,3.26,5.12-4.38,2.8-8.54,1.58-12.47-1-1.34-.88-2.42-1.93-4.1-1.21.51-2.13,2.24-.9,3.37-1.32A4.66,4.66,0,0,0,247.14,265.1Z" transform="translate(-139.59 -153.68)"/><path class="cls-40" d="M280.73,274.9l-17.67-7.75c-1.83-2.24-4.33-1.69-6.68-1.81a6.24,6.24,0,0,1-.71.53,4,4,0,0,1-.84.4l-1.12,1c-.36,2.7,1.07,4.17,3.26,5.12,8.21,1.88,15.5,6.28,23.51,9-.59,1.28-1.64,2-1.6,3.29,1.58,1.12,3,2.59,5.11,2.58l3.31-3.41c.45-1,1.92-1.22,1.91-2.59C288,276.87,283.25,277.45,280.73,274.9Z" transform="translate(-139.59 -153.68)"/><path class="cls-41" d="M278.88,284.67c2.4-.64,3.59,1.33,5.11,2.58-4.71,7.62-10.72,14.15-16.22,21.11-2.29.19-4.82,1.48-6.4-1.52C267,299.28,272.57,291.65,278.88,284.67Z" transform="translate(-139.59 -153.68)"/><path class="cls-42" d="M261.37,306.84c1.88,1.65,4.52-.14,6.4,1.52-2.23,2.94-4.54,5.83-6.65,8.86-.92,1.33-2.66,2.28-2.29,4.36-2.55.49-3.91-2-6-2.59C254.17,313.8,258.38,310.79,261.37,306.84Z" transform="translate(-139.59 -153.68)"/><text class="cls-43" transform="translate(186.97 167.63)">INMEDIC</text></svg>